<svg width="122" height="97" viewBox="0 0 122 97" fill="none" xmlns="http://www.w3.org/2000/svg">
<g filter="url(#filter0_i_5_2)">
<path d="M122 22.4827V7.98924C122 3.58545 118.446 0.00943461 114.042 0.00308509C101.712 -0.014693 84.3559 0.0376851 76.8895 0.337056C67.5883 0.709992 63.7128 6.19008 62.9377 8.88351C61.2842 13.0272 57.5741 22.1538 55.9619 25.5102C55.0306 27.449 54.089 28.7207 53.3402 29.499C52.6063 30.2618 51.5414 30.4827 50.4829 30.4827H28.7726C24.3543 30.4827 20.7726 34.0644 20.7726 38.4827V52.8121C20.7726 57.4553 24.2747 61.3344 28.9175 61.402L29.1436 61.4053C37.5766 61.5296 42.2685 56.3811 43.5604 53.7912C46.0407 47.8864 51.2183 35.5484 52.0864 33.4351C52.9545 31.3218 55.0318 30.5863 55.9619 30.4827H114C118.418 30.4827 122 26.901 122 22.4827Z" fill="url(#paint0_linear_5_2)"/>
<path d="M101.693 58.3778V43.0042C101.693 38.8949 98.5696 35.5137 94.4607 35.5705C92.87 35.5925 91.0807 35.6513 89.136 35.766C82.8112 36.1389 78.6463 42.137 77.3545 45.0894C75.3909 49.4921 71.3088 58.9191 70.6887 61.4053C70.3785 62.6492 69.7449 63.7374 69.0792 64.5923C68.0623 65.8982 66.3894 66.3778 64.7342 66.3778H8C3.58172 66.3778 0 69.9595 0 74.3778V88.9214C0 93.3662 3.62274 96.9586 8.06749 96.9301C21.2549 96.8456 39.5094 96.7875 44.9555 96.9896C50.9843 97.2135 55.6227 93.7601 57.6945 91.4816C58.1079 91.0271 58.4119 90.4949 58.6618 89.9336C61.4097 83.7615 66.4495 72.2888 67.2783 69.7964C68.1464 67.1858 69.9136 66.4296 70.6887 66.3778H93.6925C98.1108 66.3778 101.693 62.7961 101.693 58.3778Z" fill="url(#paint1_linear_5_2)"/>
</g>
<defs>
<filter id="filter0_i_5_2" x="0" y="0" width="139" height="116" filterUnits="userSpaceOnUse" color-interpolation-filters="sRGB">
<feFlood flood-opacity="0" result="BackgroundImageFix"/>
<feBlend mode="normal" in="SourceGraphic" in2="BackgroundImageFix" result="shape"/>
<feColorMatrix in="SourceAlpha" type="matrix" values="0 0 0 0 0 0 0 0 0 0 0 0 0 0 0 0 0 0 127 0" result="hardAlpha"/>
<feOffset dx="17" dy="19"/>
<feGaussianBlur stdDeviation="18.75"/>
<feComposite in2="hardAlpha" operator="arithmetic" k2="-1" k3="1"/>
<feColorMatrix type="matrix" values="0 0 0 0 0 0 0 0 0 0 0 0 0 0 0 0 0 0 0.34 0"/>
<feBlend mode="normal" in2="shape" result="effect1_innerShadow_5_2"/>
</filter>
<linearGradient id="paint0_linear_5_2" x1="16" y1="78.5" x2="137" y2="4.5" gradientUnits="userSpaceOnUse">
<stop offset="0.704949" stop-color="#EBEBEB"/>
<stop offset="1" stop-color="#E0F521"/>
</linearGradient>
<linearGradient id="paint1_linear_5_2" x1="16" y1="78.5" x2="137" y2="4.5" gradientUnits="userSpaceOnUse">
<stop offset="0.704949" stop-color="#EBEBEB"/>
<stop offset="1" stop-color="#E0F521"/>
</linearGradient>
</defs>
</svg>


