<?xml version="1.0" encoding="UTF-8"?>
<svg version="1.1" viewBox="0 0 1024 1024" width="1024" height="1024" xmlns="http://www.w3.org/2000/svg">
<path transform="translate(356,6)" d="m0 0h20l26 3 21 5 20 7 18 8 22 13 16 12 14 12 11 11 9 11 13 18 10 17 7 16 8 24 4 19 1 8v35l-4 23-7 21-6 13-6 12-13 19-13 16-12 13-11 11-8 7-10 9-11 9-16 13h-2v2l-14 11-10 9-11 9-14 12-7 7-8 7-23 23-7 8-12 14-9 11-10 13-9 13-12 18-9 15-12 23-9 19-8 20-12 36-7 26-9 41-15 87-7 41-7 31-7 21-8 15-7 9-7 7-10 6-12 4-13 1-17-3-13-5-10-6-11-9-10-10-10-13-12-20-13-27-13-36-10-35-7-30-7-33-9-51-5-37-3-33-2-35v-55l2-34 4-38 7-40 6-25 7-25 10-30 11-28 12-27 19-38 12-21 11-18 12-18 13-18 11-14 11-13 7-8 11-12 7-8h2v-2l8-7 14-13 14-11 17-12 21-13 15-8 26-11 14-5 26-6 13-2z" fill="#FEFEFE"/>
<path transform="translate(667,374)" d="m0 0h29l21 4 20 7 19 10 12 9 13 11 12 12 14 19 12 23 6 15 6 20 4 21 1 22-1 17-4 20-8 24-10 19-12 17-13 15-11 12-14 14-8 7-14 14-9 11-10 13-9 15-8 17-6 18-4 20-2 16-3 42-4 25-5 16-7 13-12 13-12 9-13 6-11 3-6 1h-25l-14-3-12-5-12-9-9-11-5-11-2-9v-28l-3-10-6-10-9-8-12-6-13-3h-16l-13 3-16 8-12 11-10 15-5 12-5 22-4 16-8 16-6 7-12 9-14 6-10 2h-18l-16-4-12-6-9-7v-2h-2l-9-12-7-14-5-19-2-17v-37l3-29 6-31 7-26 12-35 11-26 17-34 10-17 13-21 16-23 18-24 11-14 12-14 11-13 12-13 9-10 12-12 4-5 8-7 16-16 8-7 14-12 14-11 16-12 19-13 20-12 22-12 23-9 22-6z" fill="#FEFEFE"/>
<path transform="translate(882,707)" d="m0 0h30l17 4 15 6 11 6 11 8 13 11 11 13 9 14 6 12 5 14 3 15v26l-4 20-8 19-9 15-12 14-11 10-17 11-16 7-14 4-10 2h-32l-16-3-19-7-14-8-16-13-9-9-11-15-8-16-6-18-3-18v-18l3-18 7-19 9-15 10-13 12-12 11-9 14-8 16-7 16-4z" fill="#FEFEFE"/>
</svg>
